<svg width="322" height="257" viewBox="0 0 322 257" fill="none" xmlns="http://www.w3.org/2000/svg">
<path fill-rule="evenodd" clip-rule="evenodd" d="M131.588 247.786C144.609 245.068 154.391 233.524 154.391 219.696C154.391 203.847 141.544 191 125.696 191C109.847 191 97 203.847 97 219.696C97 233.354 106.543 244.784 119.324 247.681L124.736 254.094C125.135 254.568 125.865 254.568 126.264 254.094L131.588 247.786ZM151 219.5C151 233.583 139.583 245 125.5 245C111.417 245 100 233.583 100 219.5C100 205.417 111.417 194 125.5 194C139.583 194 151 205.417 151 219.5Z" fill="url(#paint0_linear_26_252)"/>
<path fill-rule="evenodd" clip-rule="evenodd" d="M137.178 208.218C138.333 208.218 139.273 209.193 139.273 210.392V213.292C139.273 213.693 138.96 214.017 138.575 214.017H135.084V210.392C135.084 209.193 136.023 208.218 137.178 208.218ZM128.103 226.912V224.167H115.536V212.567C115.536 210.169 117.415 208.218 119.725 208.218H134.404C133.961 208.825 133.688 209.573 133.688 210.392V227.067C133.688 228.828 132.176 230.223 130.426 229.927C129.053 229.695 128.103 228.357 128.103 226.912ZM126.706 225.617V227.067C126.706 229.465 128.585 231.417 130.895 231.417H116.235C113.535 231.417 111.348 229.145 111.348 226.342C111.348 225.941 111.66 225.617 112.046 225.617H126.706ZM118.221 214.386C118.221 213.827 118.675 213.373 119.235 213.373H129.391C129.866 213.373 130.251 213.758 130.251 214.232C130.251 214.707 129.866 215.092 129.391 215.092H118.221V214.386ZM119.235 217.669C118.675 217.669 118.221 218.123 118.221 218.682V219.387H129.391C129.866 219.387 130.251 219.003 130.251 218.528C130.251 218.054 129.866 217.669 129.391 217.669H119.235Z" fill="#8BFF8E"/>
<g filter="url(#filter0_f_26_252)">
<path fill-rule="evenodd" clip-rule="evenodd" d="M23.5168 99.3681C31.9942 95.5953 38.3623 86.4121 38.3623 77.1727C38.3623 66.584 29.9984 59.9312 19.6811 62.3131C9.36382 64.695 1 75.2098 1 85.7985C1 94.9242 7.21231 101.127 15.5334 101.141L19.0562 104.613C19.3163 104.869 19.7912 104.759 20.0513 104.383L23.5168 99.3681ZM36.1545 77.5517C36.1545 86.9612 28.7221 96.3051 19.5538 98.4217C10.3854 100.538 2.95303 94.6264 2.95303 85.2169C2.95303 75.8074 10.3854 66.4636 19.5538 64.3469C28.7221 62.2302 36.1545 68.1422 36.1545 77.5517Z" fill="url(#paint1_linear_26_252)"/>
<path fill-rule="evenodd" clip-rule="evenodd" d="M27.1565 72.0909C27.9084 71.9173 28.52 72.4279 28.52 73.2293V75.1668C28.52 75.4344 28.3166 75.6982 28.0655 75.7561L25.793 76.2808V73.8588C25.793 73.0575 26.4046 72.2645 27.1565 72.0909ZM21.2482 85.9451V84.1114L13.0674 86.0001V78.2499C13.0674 76.6472 14.2905 75.0613 15.7943 74.7141L25.3502 72.5079C25.0619 72.9805 24.8841 73.5213 24.8841 74.0687V85.2095C24.8841 86.3862 23.8998 87.5453 22.7607 87.6106C21.8668 87.662 21.2482 86.9105 21.2482 85.9451ZM20.3392 85.29V86.2588C20.3392 87.8612 21.5623 88.8827 23.0661 88.5355L13.5219 90.739C11.7647 91.1446 10.3405 89.9555 10.3405 88.0828C10.3405 87.8151 10.5438 87.5514 10.7949 87.4935L20.3392 85.29ZM14.8153 79.0616C14.8153 78.6878 15.1106 78.3165 15.4749 78.2324L22.0871 76.7059C22.3961 76.6345 22.6465 76.8337 22.6465 77.1508C22.6465 77.4679 22.3961 77.7827 22.0871 77.854L14.8153 79.5329V79.0616ZM15.4749 81.1026C15.1106 81.1867 14.8153 81.558 14.8153 81.9318V82.4031L22.0871 80.7242C22.3961 80.6529 22.6465 80.3381 22.6465 80.021C22.6465 79.704 22.3961 79.5048 22.0871 79.5761L15.4749 81.1026Z" fill="#8BFF8E"/>
</g>
<g filter="url(#filter1_f_26_252)">
<path fill-rule="evenodd" clip-rule="evenodd" d="M242.423 63.5311C250.865 63.8203 257.206 57.6884 257.206 48.449C257.206 37.8603 248.877 27.1999 238.603 24.6383C228.329 22.0766 220 28.5838 220 39.1725C220 48.2982 226.186 57.4772 234.473 61.4792L237.981 66.6385C238.24 67.0194 238.713 67.1374 238.972 66.8856L242.423 63.5311ZM255.008 47.7702C255.008 57.1797 247.606 62.9622 238.476 60.6859C229.346 58.4095 221.945 48.9362 221.945 39.5267C221.945 30.1172 229.346 24.3347 238.476 26.611C247.606 28.8874 255.008 38.3607 255.008 47.7702Z" fill="url(#paint2_linear_26_252)"/>
<path fill-rule="evenodd" clip-rule="evenodd" d="M246.047 37.9979C246.796 38.1846 247.405 38.9883 247.405 39.7896V41.7271C247.405 41.9948 247.202 42.161 246.952 42.0987L244.689 41.5345V39.1125C244.689 38.3112 245.298 37.8112 246.047 37.9979ZM240.163 49.0211V47.1874L232.017 45.1562V37.4061C232.017 35.8034 233.235 34.8035 234.732 35.1769L244.248 37.5494C243.961 37.8838 243.784 38.3395 243.784 38.8869V50.0277C243.784 51.2044 242.804 51.8919 241.67 51.4114C240.78 51.0344 240.163 49.9865 240.163 49.0211ZM239.258 47.9305V48.8992C239.258 50.5016 240.476 52.1092 241.974 52.4826L232.47 50.1129C230.72 49.6766 229.301 47.8051 229.301 45.9323C229.301 45.6647 229.504 45.4984 229.754 45.5608L239.258 47.9305ZM233.758 39.0553C233.758 38.6815 234.052 38.4517 234.414 38.5422L240.999 40.1839C241.307 40.2606 241.556 40.5798 241.556 40.8968C241.556 41.2139 241.307 41.4087 240.999 41.332L233.758 39.5266V39.0553ZM234.414 41.4124C234.052 41.3219 233.758 41.5517 233.758 41.9255V42.3968L240.999 44.2023C241.307 44.279 241.556 44.0841 241.556 43.7671C241.556 43.45 241.307 43.1308 240.999 43.0541L234.414 41.4124Z" fill="#8BFF8E"/>
</g>
<g filter="url(#filter2_f_26_252)">
<path fill-rule="evenodd" clip-rule="evenodd" d="M69.6904 52.8283C75.2212 50.8855 79.3758 45.3503 79.3758 39.4191C79.3758 32.6218 73.9191 27.8783 67.1879 28.8243C60.4567 29.7703 55 36.0476 55 42.8449C55 48.7031 59.053 53.0357 64.4819 53.5156L66.7802 55.943C66.9499 56.1223 67.2597 56.0787 67.4294 55.8518L69.6904 52.8283ZM77.9354 39.5376C77.9354 45.578 73.0864 51.1562 67.1048 51.9969C61.1232 52.8375 56.2742 48.6223 56.2742 42.5819C56.2742 36.5416 61.1232 30.9634 67.1048 30.1227C73.0864 29.2821 77.9354 33.4973 77.9354 39.5376Z" fill="url(#paint3_linear_26_252)"/>
<path fill-rule="evenodd" clip-rule="evenodd" d="M72.065 35.5236C72.5555 35.4546 72.9545 35.817 72.9545 36.3314V37.5752C72.9545 37.747 72.8218 37.9048 72.658 37.9278L71.1754 38.1362V36.5814C71.1754 36.067 71.5744 35.5925 72.065 35.5236ZM68.2103 44.0833V42.9061L62.873 43.6562V38.6811C62.873 37.6523 63.671 36.7033 64.6521 36.5654L70.8865 35.6892C70.6984 35.9762 70.5824 36.3134 70.5824 36.6648V43.8165C70.5824 44.572 69.9402 45.2604 69.1971 45.2379C68.6139 45.2204 68.2103 44.703 68.2103 44.0833ZM67.6172 43.6114V44.2333C67.6172 45.2619 68.4152 45.9868 69.3963 45.8489L63.1695 46.724C62.0231 46.8852 61.0939 46.0413 61.0939 44.8391C61.0939 44.6673 61.2266 44.5095 61.3904 44.4865L67.6172 43.6114ZM64.0134 39.301C64.0134 39.061 64.206 38.8393 64.4437 38.8059L68.7576 38.1996C68.9592 38.1713 69.1226 38.3134 69.1226 38.5169C69.1226 38.7204 68.9592 38.9084 68.7576 38.9367L64.0134 39.6035V39.301ZM64.4437 40.6485C64.206 40.6819 64.0134 40.9035 64.0134 41.1435V41.446L68.7576 40.7792C68.9592 40.7509 69.1226 40.5629 69.1226 40.3594C69.1226 40.1559 68.9592 40.0138 68.7576 40.0422L64.4437 40.6485Z" fill="#8BFF8E"/>
</g>
<g filter="url(#filter3_f_26_252)">
<path fill-rule="evenodd" clip-rule="evenodd" d="M307.552 93.3895C312.654 94.4956 316.487 91.2508 316.487 85.3196C316.487 78.5223 311.453 70.7707 305.244 68.006C299.034 65.2413 294 68.5103 294 75.3077C294 81.1659 297.739 87.7328 302.747 91.2054L304.868 94.8999C305.024 95.1727 305.31 95.3 305.466 95.1666L307.552 93.3895ZM315.158 84.6441C315.158 90.6845 310.685 93.5895 305.167 91.1327C299.649 88.6759 295.175 81.7875 295.175 75.7471C295.175 69.7068 299.649 66.8017 305.167 69.2586C310.685 71.7154 315.158 78.6038 315.158 84.6441Z" fill="url(#paint4_linear_26_252)"/>
<path fill-rule="evenodd" clip-rule="evenodd" d="M309.743 77.3938C310.195 77.5953 310.563 78.1776 310.563 78.6921V79.9358C310.563 80.1076 310.441 80.1923 310.29 80.125L308.922 79.5161V77.9613C308.922 77.4469 309.29 77.1924 309.743 77.3938ZM306.187 83.8285V82.6514L301.263 80.4592V75.4841C301.263 74.4552 301.999 73.9462 302.904 74.3491L308.656 76.9098C308.482 77.0932 308.375 77.3664 308.375 77.7177V84.8695C308.375 85.6249 307.783 85.9593 307.097 85.5272C306.559 85.1882 306.187 84.4483 306.187 83.8285ZM305.64 83.0297V83.6516C305.64 84.6803 306.376 85.8451 307.281 86.248L301.537 83.6905C300.479 83.2196 299.622 81.8635 299.622 80.6613C299.622 80.4895 299.744 80.4049 299.895 80.4722L305.64 83.0297ZM302.315 76.7326C302.315 76.4926 302.493 76.3772 302.712 76.4748L306.692 78.2467C306.878 78.3294 307.028 78.5615 307.028 78.7651C307.028 78.9686 306.878 79.0665 306.692 78.9837L302.315 77.0351V76.7326ZM302.712 78.3173C302.493 78.2197 302.315 78.3351 302.315 78.5751V78.8776L306.692 80.8262C306.878 80.909 307.028 80.8111 307.028 80.6076C307.028 80.4041 306.878 80.172 306.692 80.0892L302.712 78.3173Z" fill="#8BFF8E"/>
</g>
<g filter="url(#filter4_f_26_252)">
<path fill-rule="evenodd" clip-rule="evenodd" d="M282.329 37.1952C287.724 37.4752 291.777 33.6098 291.777 27.6786C291.777 20.8813 286.454 13.9447 279.888 12.1855C273.323 10.4262 268 14.5103 268 21.3077C268 27.1659 271.953 33.1274 277.249 35.7891L279.491 39.1403C279.656 39.3877 279.958 39.4687 280.124 39.31L282.329 37.1952ZM290.372 27.2182C290.372 33.2586 285.642 36.888 279.807 35.3246C273.973 33.7612 269.243 27.5972 269.243 21.5568C269.243 15.5164 273.973 11.8871 279.807 13.4505C285.642 15.0138 290.372 21.1779 290.372 27.2182Z" fill="url(#paint5_linear_26_252)"/>
<path fill-rule="evenodd" clip-rule="evenodd" d="M284.645 20.8448C285.124 20.973 285.513 21.4957 285.513 22.0102V23.254C285.513 23.4258 285.384 23.5302 285.224 23.4874L283.778 23.0999V21.5452C283.778 21.0308 284.167 20.7166 284.645 20.8448ZM280.886 27.8553V26.6782L275.679 25.2832V20.3081C275.679 19.2792 276.458 18.651 277.415 18.9074L283.496 20.5368C283.312 20.7483 283.199 21.0388 283.199 21.3902V28.542C283.199 29.2974 282.573 29.7277 281.848 29.4066C281.279 29.1546 280.886 28.4751 280.886 27.8553ZM280.307 27.1451V27.767C280.307 28.7956 281.085 29.8412 282.042 30.0976L275.969 28.4702C274.85 28.1705 273.944 26.9533 273.944 25.7511C273.944 25.5793 274.074 25.4748 274.233 25.5176L280.307 27.1451ZM276.792 21.3862C276.792 21.1462 276.98 21.002 277.212 21.0642L281.419 22.1917C281.616 22.2443 281.775 22.452 281.775 22.6556C281.775 22.8591 281.616 22.9814 281.419 22.9287L276.792 21.6887V21.3862ZM277.212 22.9067C276.98 22.8446 276.792 22.9888 276.792 23.2287V23.5313L281.419 24.7712C281.616 24.8239 281.775 24.7016 281.775 24.4981C281.775 24.2945 281.616 24.0868 281.419 24.0342L277.212 22.9067Z" fill="#8BFF8E"/>
</g>
<g filter="url(#filter5_f_26_252)">
<path fill-rule="evenodd" clip-rule="evenodd" d="M170.093 178.631C178.035 176.973 184 169.933 184 161.5C184 151.835 176.165 144 166.5 144C156.835 144 149 151.835 149 161.5C149 169.83 154.82 176.8 162.615 178.567L165.915 182.478C166.158 182.767 166.603 182.767 166.847 182.478L170.093 178.631ZM181.932 161.381C181.932 169.969 174.969 176.932 166.381 176.932C157.792 176.932 150.83 169.969 150.83 161.381C150.83 152.792 157.792 145.83 166.381 145.83C174.969 145.83 181.932 152.792 181.932 161.381Z" fill="url(#paint6_linear_26_252)"/>
<path fill-rule="evenodd" clip-rule="evenodd" d="M173.503 154.5C174.207 154.5 174.78 155.095 174.78 155.827V157.595C174.78 157.839 174.589 158.037 174.354 158.037H172.225V155.827C172.225 155.095 172.798 154.5 173.503 154.5ZM167.968 165.901V164.227H160.304V157.153C160.304 155.69 161.45 154.5 162.859 154.5H171.811C171.541 154.871 171.374 155.327 171.374 155.827V165.995C171.374 167.07 170.452 167.92 169.385 167.74C168.548 167.598 167.968 166.782 167.968 165.901ZM167.116 165.111V165.995C167.116 167.458 168.262 168.648 169.671 168.648H160.73C159.084 168.648 157.75 167.263 157.75 165.553C157.75 165.309 157.94 165.111 158.176 165.111H167.116ZM161.942 158.262C161.942 157.921 162.218 157.644 162.56 157.644H168.754C169.043 157.644 169.278 157.879 169.278 158.168C169.278 158.458 169.043 158.692 168.754 158.692H161.942V158.262ZM162.56 160.264C162.218 160.264 161.942 160.541 161.942 160.882V161.312H168.754C169.043 161.312 169.278 161.077 169.278 160.788C169.278 160.499 169.043 160.264 168.754 160.264H162.56Z" fill="#8BFF8E"/>
</g>
<g filter="url(#filter6_f_26_252)">
<path fill-rule="evenodd" clip-rule="evenodd" d="M135.489 141.004C140.076 140.047 143.522 135.98 143.522 131.109C143.522 125.526 138.996 121 133.413 121C127.83 121 123.304 125.526 123.304 131.109C123.304 135.92 126.666 139.947 131.169 140.967L133.075 143.226C133.216 143.393 133.473 143.393 133.613 143.226L135.489 141.004ZM142.327 131.04C142.327 136.001 138.305 140.023 133.344 140.023C128.383 140.023 124.361 136.001 124.361 131.04C124.361 126.079 128.383 122.057 133.344 122.057C138.305 122.057 142.327 126.079 142.327 131.04Z" fill="url(#paint7_linear_26_252)"/>
<path fill-rule="evenodd" clip-rule="evenodd" d="M137.458 127.065C137.865 127.065 138.196 127.409 138.196 127.831V128.853C138.196 128.994 138.086 129.108 137.95 129.108H136.72V127.831C136.72 127.409 137.051 127.065 137.458 127.065ZM134.261 133.651V132.684H129.834V128.598C129.834 127.753 130.496 127.065 131.31 127.065H136.481C136.325 127.279 136.228 127.543 136.228 127.831V133.705C136.228 134.326 135.696 134.817 135.079 134.713C134.596 134.631 134.261 134.16 134.261 133.651ZM133.769 133.195V133.705C133.769 134.55 134.431 135.238 135.245 135.238H130.08C129.129 135.238 128.359 134.437 128.359 133.45C128.359 133.309 128.469 133.195 128.605 133.195H133.769ZM130.78 129.238C130.78 129.041 130.94 128.881 131.137 128.881H134.715C134.882 128.881 135.018 129.017 135.018 129.184C135.018 129.351 134.882 129.487 134.715 129.487H130.78V129.238ZM131.137 130.395C130.94 130.395 130.78 130.555 130.78 130.752V131H134.715C134.882 131 135.018 130.865 135.018 130.697C135.018 130.53 134.882 130.395 134.715 130.395H131.137Z" fill="#8BFF8E"/>
</g>
<defs>
<filter id="filter0_f_26_252" x="0.3" y="57.3002" width="38.7623" height="54.1225" filterUnits="userSpaceOnUse" color-interpolation-filters="sRGB">
<feFlood flood-opacity="0" result="BackgroundImageFix"/>
<feBlend mode="normal" in="SourceGraphic" in2="BackgroundImageFix" result="shape"/>
<feGaussianBlur stdDeviation="0.35" result="effect1_foregroundBlur_26_252"/>
</filter>
<filter id="filter1_f_26_252" x="219.3" y="19.3" width="38.606" height="54.7733" filterUnits="userSpaceOnUse" color-interpolation-filters="sRGB">
<feFlood flood-opacity="0" result="BackgroundImageFix"/>
<feBlend mode="normal" in="SourceGraphic" in2="BackgroundImageFix" result="shape"/>
<feGaussianBlur stdDeviation="0.35" result="effect1_foregroundBlur_26_252"/>
</filter>
<filter id="filter2_f_26_252" x="50" y="22.1115" width="34.3758" height="41.7334" filterUnits="userSpaceOnUse" color-interpolation-filters="sRGB">
<feFlood flood-opacity="0" result="BackgroundImageFix"/>
<feBlend mode="normal" in="SourceGraphic" in2="BackgroundImageFix" result="shape"/>
<feGaussianBlur stdDeviation="2.5" result="effect1_foregroundBlur_26_252"/>
</filter>
<filter id="filter3_f_26_252" x="289" y="58" width="32.4872" height="48.3196" filterUnits="userSpaceOnUse" color-interpolation-filters="sRGB">
<feFlood flood-opacity="0" result="BackgroundImageFix"/>
<feBlend mode="normal" in="SourceGraphic" in2="BackgroundImageFix" result="shape"/>
<feGaussianBlur stdDeviation="2.5" result="effect1_foregroundBlur_26_252"/>
</filter>
<filter id="filter4_f_26_252" x="256.8" y="-2.2" width="46.1766" height="57.0786" filterUnits="userSpaceOnUse" color-interpolation-filters="sRGB">
<feFlood flood-opacity="0" result="BackgroundImageFix"/>
<feBlend mode="normal" in="SourceGraphic" in2="BackgroundImageFix" result="shape"/>
<feGaussianBlur stdDeviation="5.6" result="effect1_foregroundBlur_26_252"/>
</filter>
<filter id="filter5_f_26_252" x="146.561" y="141.561" width="39.8788" height="45.1288" filterUnits="userSpaceOnUse" color-interpolation-filters="sRGB">
<feFlood flood-opacity="0" result="BackgroundImageFix"/>
<feBlend mode="normal" in="SourceGraphic" in2="BackgroundImageFix" result="shape"/>
<feGaussianBlur stdDeviation="1.2197" result="effect1_foregroundBlur_26_252"/>
</filter>
<filter id="filter6_f_26_252" x="121.895" y="119.591" width="23.0356" height="26.0682" filterUnits="userSpaceOnUse" color-interpolation-filters="sRGB">
<feFlood flood-opacity="0" result="BackgroundImageFix"/>
<feBlend mode="normal" in="SourceGraphic" in2="BackgroundImageFix" result="shape"/>
<feGaussianBlur stdDeviation="0.704547" result="effect1_foregroundBlur_26_252"/>
</filter>
<linearGradient id="paint0_linear_26_252" x1="125.696" y1="191" x2="125.696" y2="254.449" gradientUnits="userSpaceOnUse">
<stop stop-color="white" stop-opacity="0.2"/>
<stop offset="1" stop-color="white"/>
</linearGradient>
<linearGradient id="paint1_linear_26_252" x1="19.6811" y1="62.3131" x2="28.973" y2="102.561" gradientUnits="userSpaceOnUse">
<stop stop-color="white" stop-opacity="0.2"/>
<stop offset="1" stop-color="white"/>
</linearGradient>
<linearGradient id="paint2_linear_26_252" x1="238.603" y1="24.6383" x2="228.652" y2="64.5499" gradientUnits="userSpaceOnUse">
<stop stop-color="white" stop-opacity="0.2"/>
<stop offset="1" stop-color="white"/>
</linearGradient>
<linearGradient id="paint3_linear_26_252" x1="67.1879" y1="28.8243" x2="70.9385" y2="55.5109" gradientUnits="userSpaceOnUse">
<stop stop-color="white" stop-opacity="0.2"/>
<stop offset="1" stop-color="white"/>
</linearGradient>
<linearGradient id="paint4_linear_26_252" x1="305.244" y1="68.006" x2="295.132" y2="90.7176" gradientUnits="userSpaceOnUse">
<stop stop-color="white" stop-opacity="0.2"/>
<stop offset="1" stop-color="white"/>
</linearGradient>
<linearGradient id="paint5_linear_26_252" x1="279.888" y1="12.1855" x2="273.085" y2="37.5762" gradientUnits="userSpaceOnUse">
<stop stop-color="white" stop-opacity="0.2"/>
<stop offset="1" stop-color="white"/>
</linearGradient>
<linearGradient id="paint6_linear_26_252" x1="166.5" y1="144" x2="166.5" y2="182.695" gradientUnits="userSpaceOnUse">
<stop stop-color="white" stop-opacity="0.2"/>
<stop offset="1" stop-color="white"/>
</linearGradient>
<linearGradient id="paint7_linear_26_252" x1="133.413" y1="121" x2="133.413" y2="143.352" gradientUnits="userSpaceOnUse">
<stop stop-color="white" stop-opacity="0.2"/>
<stop offset="1" stop-color="white"/>
</linearGradient>
</defs>
</svg>
