<svg width="122" height="36" viewBox="0 0 122 36" fill="none" xmlns="http://www.w3.org/2000/svg">
<path d="M10.25 35.2C8.41 35.2 6.74333 34.7467 5.25 33.84C3.78333 32.9333 2.62333 31.6267 1.77 29.92C0.916667 28.1867 0.49 26.1467 0.49 23.8C0.49 19.7467 1.35667 16 3.09 12.56C4.82333 9.09333 7.38333 6.32 10.77 4.24C14.1567 2.13333 18.2233 1.08 22.97 1.08C24.1967 1.08 25.5033 1.17333 26.89 1.36C28.3033 1.54667 29.5833 1.82666 30.73 2.2C31.4767 2.41333 31.85 2.94667 31.85 3.8C31.85 4.49333 31.5833 5.14667 31.05 5.76C30.5433 6.37333 29.9433 6.68 29.25 6.68C29.0367 6.68 28.8767 6.66667 28.77 6.64C27.3833 6.32 26.1967 6.09333 25.21 5.96C24.2233 5.8 23.1833 5.72 22.09 5.72C18.7033 5.72 15.8233 6.54667 13.45 8.2C11.0767 9.82667 9.30333 11.9867 8.13 14.68C6.95667 17.3733 6.37 20.28 6.37 23.4C6.37 25.6667 6.81 27.4267 7.69 28.68C8.59667 29.9067 9.77 30.52 11.21 30.52C12.8367 30.52 14.2633 29.8533 15.49 28.52C16.7167 27.1867 17.8367 25.0267 18.85 22.04C19.8633 19.0533 20.8633 15 21.85 9.88C22.01 9.13333 22.33 8.62667 22.81 8.36C23.29 8.09333 23.93 7.96 24.73 7.96C26.6233 7.96 27.57 8.57333 27.57 9.8C27.57 10.0133 27.53 10.28 27.45 10.6C26.7567 13.1867 26.1167 16.0533 25.53 19.2C24.97 22.32 24.69 24.6933 24.69 26.32C24.69 27.76 24.9033 28.8133 25.33 29.48C25.7567 30.12 26.41 30.44 27.29 30.44C28.1433 30.44 28.9567 30.16 29.73 29.6C30.5033 29.0133 31.4767 28.0267 32.65 26.64C32.97 26.2667 33.33 26.08 33.73 26.08C34.0767 26.08 34.3433 26.24 34.53 26.56C34.7433 26.88 34.85 27.32 34.85 27.88C34.85 28.92 34.5967 29.7467 34.09 30.36C32.7833 31.9333 31.5033 33.1333 30.25 33.96C28.9967 34.7867 27.4633 35.2 25.65 35.2C23.7833 35.2 22.2767 34.6667 21.13 33.6C19.9833 32.5067 19.2633 30.9733 18.97 29C16.9967 33.1333 14.09 35.2 10.25 35.2ZM51.4153 22.84C51.4953 22.8133 51.6286 22.8 51.8153 22.8C52.2153 22.8 52.522 22.9333 52.7353 23.2C52.9486 23.4667 53.0553 23.8267 53.0553 24.28C53.0553 25.1067 52.8953 25.76 52.5753 26.24C52.2553 26.6933 51.7753 27.0267 51.1353 27.24C49.9086 27.64 48.602 27.84 47.2153 27.84C46.042 27.84 44.9353 27.68 43.8953 27.36C43.122 28.6133 42.2686 29.9067 41.3353 31.24C40.2686 32.76 39.3486 33.8 38.5753 34.36C37.802 34.92 36.922 35.2 35.9353 35.2C34.842 35.2 33.9753 34.7733 33.3353 33.92C32.722 33.0667 32.3353 31.72 32.1753 29.88C31.8553 26.1467 31.6953 22.88 31.6953 20.08V18.68C31.722 17.8 31.962 17.1867 32.4153 16.84C32.8686 16.4933 33.5486 16.32 34.4553 16.32C35.1486 16.32 35.6553 16.48 35.9753 16.8C36.322 17.0933 36.4953 17.6 36.4953 18.32C36.4953 21.3867 36.682 25.3733 37.0553 30.28C38.6553 27.9067 39.8553 26.0133 40.6553 24.6C40.2553 23.8267 40.0553 22.9067 40.0553 21.84C40.0553 20.9333 40.2553 20.0533 40.6553 19.2C41.0553 18.3467 41.602 17.6533 42.2953 17.12C42.9886 16.5867 43.7753 16.32 44.6553 16.32C45.4286 16.32 46.0553 16.6 46.5353 17.16C47.0153 17.6933 47.2553 18.48 47.2553 19.52C47.2553 20.72 46.9353 22.0933 46.2953 23.64C47.3086 23.5867 48.6553 23.3867 50.3353 23.04L51.4153 22.84ZM54.5041 35.2C52.8507 35.2 51.5307 34.6 50.5441 33.4C49.5574 32.2 49.0641 30.6267 49.0641 28.68C49.0641 26.5467 49.5574 24.5333 50.5441 22.64C51.5307 20.72 52.8374 19.1867 54.4641 18.04C56.1174 16.8667 57.8641 16.28 59.7041 16.28C60.2907 16.28 60.6774 16.4 60.8641 16.64C61.0774 16.8533 61.2507 17.2533 61.3841 17.84C61.9441 17.7333 62.5307 17.68 63.1441 17.68C64.4507 17.68 65.1041 18.1467 65.1041 19.08C65.1041 19.64 64.9041 20.9733 64.5041 23.08C63.8907 26.1467 63.5841 28.28 63.5841 29.48C63.5841 29.88 63.6774 30.2 63.8641 30.44C64.0774 30.68 64.3441 30.8 64.6641 30.8C65.1707 30.8 65.7841 30.48 66.5041 29.84C67.2241 29.1733 68.1974 28.1067 69.4241 26.64C69.7441 26.2667 70.1041 26.08 70.5041 26.08C70.8507 26.08 71.1174 26.24 71.3041 26.56C71.5174 26.88 71.6241 27.32 71.6241 27.88C71.6241 28.9467 71.3707 29.7733 70.8641 30.36C69.7707 31.72 68.6107 32.8667 67.3841 33.8C66.1574 34.7333 64.9707 35.2 63.8241 35.2C62.9441 35.2 62.1307 34.9067 61.3841 34.32C60.6641 33.7067 60.1174 32.88 59.7441 31.84C58.3574 34.08 56.6107 35.2 54.5041 35.2ZM55.9441 31.16C56.5307 31.16 57.0907 30.8133 57.6241 30.12C58.1574 29.4267 58.5441 28.5067 58.7841 27.36L60.2641 20C59.1441 20.0267 58.1041 20.4533 57.1441 21.28C56.2107 22.08 55.4641 23.1467 54.9041 24.48C54.3441 25.8133 54.0641 27.2267 54.0641 28.72C54.0641 29.5467 54.2241 30.16 54.5441 30.56C54.8907 30.96 55.3574 31.16 55.9441 31.16ZM86.2131 26.08C86.5598 26.08 86.8265 26.24 87.0131 26.56C87.2265 26.88 87.3331 27.32 87.3331 27.88C87.3331 28.9467 87.0798 29.7733 86.5731 30.36C85.4265 31.7733 84.1731 32.9333 82.8131 33.84C81.4531 34.7467 79.8931 35.2 78.1331 35.2C72.6931 35.2 69.9731 31.3733 69.9731 23.72C69.9731 22.5467 70.0131 21.36 70.0931 20.16H68.5331C67.7331 20.16 67.1865 20.0133 66.8931 19.72C66.6265 19.4267 66.4931 18.96 66.4931 18.32C66.4931 16.8267 67.0931 16.08 68.2931 16.08H70.5731C71.0265 13.1467 71.7198 10.4667 72.6531 8.04C73.5865 5.61333 74.7065 3.68 76.0131 2.24C77.3465 0.799998 78.7731 0.079999 80.2931 0.079999C81.4131 0.079999 82.2931 0.573332 82.9331 1.56C83.5731 2.54667 83.8931 3.78667 83.8931 5.28C83.8931 9.41333 82.1598 13.0133 78.6931 16.08H83.1731C83.5998 16.08 83.9065 16.1733 84.0931 16.36C84.2798 16.5467 84.3731 16.8933 84.3731 17.4C84.3731 19.24 82.8665 20.16 79.8531 20.16H74.9731C74.9198 21.4933 74.8931 22.5333 74.8931 23.28C74.8931 26.0533 75.2131 28 75.8531 29.12C76.5198 30.24 77.5598 30.8 78.9731 30.8C80.1198 30.8 81.1331 30.4533 82.0131 29.76C82.8931 29.0667 83.9331 28.0267 85.1331 26.64C85.4531 26.2667 85.8131 26.08 86.2131 26.08ZM79.2131 3.92C78.8131 3.92 78.3598 4.42667 77.8531 5.44C77.3731 6.42667 76.9065 7.81333 76.4531 9.6C76.0265 11.36 75.6665 13.32 75.3731 15.48C76.9465 14.12 78.1198 12.6 78.8931 10.92C79.6931 9.21333 80.0931 7.66667 80.0931 6.28C80.0931 4.70667 79.7998 3.92 79.2131 3.92ZM88.9963 35.2C87.3429 35.2 86.0229 34.6 85.0363 33.4C84.0496 32.2 83.5563 30.6267 83.5563 28.68C83.5563 26.5467 84.0496 24.5333 85.0363 22.64C86.0229 20.72 87.3296 19.1867 88.9563 18.04C90.6096 16.8667 92.3563 16.28 94.1963 16.28C94.7829 16.28 95.1696 16.4 95.3563 16.64C95.5696 16.8533 95.7429 17.2533 95.8763 17.84C96.4363 17.7333 97.0229 17.68 97.6363 17.68C98.9429 17.68 99.5963 18.1467 99.5963 19.08C99.5963 19.64 99.3963 20.9733 98.9963 23.08C98.3829 26.1467 98.0763 28.28 98.0763 29.48C98.0763 29.88 98.1696 30.2 98.3563 30.44C98.5696 30.68 98.8363 30.8 99.1563 30.8C99.6629 30.8 100.276 30.48 100.996 29.84C101.716 29.1733 102.69 28.1067 103.916 26.64C104.236 26.2667 104.596 26.08 104.996 26.08C105.343 26.08 105.61 26.24 105.796 26.56C106.01 26.88 106.116 27.32 106.116 27.88C106.116 28.9467 105.863 29.7733 105.356 30.36C104.263 31.72 103.103 32.8667 101.876 33.8C100.65 34.7333 99.4629 35.2 98.3163 35.2C97.4363 35.2 96.6229 34.9067 95.8763 34.32C95.1563 33.7067 94.6096 32.88 94.2363 31.84C92.8496 34.08 91.1029 35.2 88.9963 35.2ZM90.4363 31.16C91.0229 31.16 91.5829 30.8133 92.1163 30.12C92.6496 29.4267 93.0363 28.5067 93.2763 27.36L94.7563 20C93.6363 20.0267 92.5963 20.4533 91.6363 21.28C90.7029 22.08 89.9563 23.1467 89.3963 24.48C88.8363 25.8133 88.5563 27.2267 88.5563 28.72C88.5563 29.5467 88.7163 30.16 89.0363 30.56C89.3829 30.96 89.8496 31.16 90.4363 31.16ZM119.025 21.84C119.612 21.84 120.105 22.0533 120.505 22.48C120.932 22.88 121.145 23.3867 121.145 24C121.145 24.3467 121.065 24.72 120.905 25.12C120.479 26.1067 119.879 26.9333 119.105 27.6C118.332 28.2667 117.479 28.6 116.545 28.6C115.799 28.6 115.159 28.3333 114.625 27.8C114.119 27.2667 113.865 26.5467 113.865 25.64C113.865 25.1333 113.892 24.5867 113.945 24C113.999 23.5733 114.025 23.28 114.025 23.12C114.025 22.9067 113.972 22.7467 113.865 22.64C113.785 22.5333 113.679 22.48 113.545 22.48C113.172 22.48 112.665 22.9333 112.025 23.84C111.385 24.72 110.745 25.8933 110.105 27.36C109.465 28.8267 108.945 30.3733 108.545 32C108.252 33.28 107.919 34.1333 107.545 34.56C107.172 34.9867 106.559 35.2 105.705 35.2C104.692 35.2 103.972 34.6667 103.545 33.6C103.145 32.5333 102.945 30.8267 102.945 28.48C102.945 25.0133 103.439 21.72 104.425 18.6C104.665 17.8267 105.052 17.2667 105.585 16.92C106.145 16.5467 106.919 16.36 107.905 16.36C108.439 16.36 108.812 16.4267 109.025 16.56C109.239 16.6933 109.345 16.9467 109.345 17.32C109.345 17.7467 109.145 18.7067 108.745 20.2C108.479 21.2667 108.265 22.2 108.105 23C107.945 23.8 107.812 24.7867 107.705 25.96C108.585 23.6667 109.572 21.8 110.665 20.36C111.759 18.92 112.825 17.8933 113.865 17.28C114.905 16.6667 115.852 16.36 116.705 16.36C117.479 16.36 118.065 16.5867 118.465 17.04C118.892 17.4667 119.105 18.1067 119.105 18.96C119.105 19.4667 118.959 20.4267 118.665 21.84H119.025Z" fill="white"/>
</svg>